<svg width="33" height="33" viewBox="0 0 33 33" fill="none" xmlns="http://www.w3.org/2000/svg">
<path d="M16.5007 18.4241L9.76784 25.1616C9.51593 25.4137 9.19525 25.5398 8.8058 25.54C8.41635 25.5401 8.09559 25.4142 7.8435 25.1623C7.59142 24.9104 7.46531 24.5897 7.46517 24.2003C7.46504 23.8108 7.59093 23.4901 7.84284 23.238L14.5757 16.5005L7.83818 9.76762C7.58609 9.51571 7.45998 9.19504 7.45985 8.80559C7.45971 8.41614 7.5856 8.09537 7.83751 7.84329C8.08942 7.5912 8.4101 7.4651 8.79955 7.46496C9.189 7.46483 9.50976 7.59071 9.76185 7.84262L16.4993 14.5755L23.2322 7.83796C23.4841 7.58588 23.8048 7.45977 24.1942 7.45963C24.5837 7.4595 24.9044 7.58539 25.1565 7.8373C25.4086 8.08921 25.5347 8.40988 25.5349 8.79933C25.535 9.18878 25.4091 9.50955 25.1572 9.76163L18.4244 16.4991L25.1619 23.232C25.4139 23.4839 25.5401 23.8046 25.5402 24.194C25.5403 24.5835 25.4144 24.9042 25.1625 25.1563C24.9106 25.4084 24.5899 25.5345 24.2005 25.5346C23.811 25.5348 23.4903 25.4089 23.2382 25.157L16.5007 18.4241Z" fill="white"/>
</svg>
